Coordinates
version=1
nRows=65
nColumns=12
inDegrees=yes

Units are S.I. units (second, meters, Newtons, ...)
Angles are in degrees

endheader
time	SC_y	SC_z	SC_x	AC_y	AC_z	AC_x	GH_y	GH_z	GH_yy	EL_x	PS_y
       0.0              -53.09          5.778          46.33          51.21          0.902          8.696          -61.7          65.22         -45.75          75.24          64.48
   0.02281              -53.09          5.782          46.34          51.21         0.9021          8.695         -61.67          65.21         -45.77          75.23          64.47
   0.04562              -53.08          5.786          46.34          51.21         0.9022          8.694         -61.64           65.2         -45.79          75.22          64.47
   0.06844              -53.08           5.79          46.34          51.21         0.9024          8.693          -61.6          65.19         -45.81          75.22          64.46
   0.09125              -53.08          5.794          46.34          51.21         0.9025          8.692         -61.56          65.17         -45.83          75.21          64.45
    0.1141              -53.07          5.799          46.34          51.21         0.9027          8.691         -61.53          65.16         -45.85           75.2          64.45
    0.1369              -53.07          5.804          46.35          51.21         0.9028           8.69         -61.48          65.15         -45.87           75.2          64.44
    0.1597              -53.07          5.809          46.35          51.21          0.903          8.689         -61.44          65.13          -45.9          75.19          64.43
    0.1825              -53.06          5.815          46.35          51.21         0.9032          8.687         -61.39          65.12         -45.93          75.18          64.42
    0.2053              -53.06          5.821          46.36          51.21         0.9034          8.686         -61.34           65.1         -45.96          75.17          64.41
    0.2281              -53.05          5.828          46.36          51.21         0.9036          8.684         -61.29          65.08         -45.99          75.16           64.4
    0.2509              -53.05          5.835          46.36          51.21         0.9038          8.683         -61.23          65.06         -46.02          75.15          64.39
    0.2737              -53.04          5.843          46.37          51.21         0.9041          8.681         -61.17          65.04         -46.06          75.14          64.38
    0.2966              -53.03          5.851          46.37          51.21         0.9044          8.679          -61.1          65.02          -46.1          75.12          64.36
    0.3194              -53.03           5.86          46.38          51.21         0.9047          8.677         -61.02          64.99         -46.14          75.11          64.35
    0.3422              -53.02           5.87          46.38          51.21          0.905          8.675         -60.94          64.96         -46.19          75.09          64.33
     0.365              -53.01           5.88          46.39          51.21         0.9053          8.672         -60.86          64.93         -46.24          75.08          64.32
    0.3878               -53.0          5.892          46.39          51.21         0.9057           8.67         -60.76           64.9         -46.29          75.06           64.3
    0.4106              -52.99          5.904           46.4          51.21         0.9061          8.667         -60.66          64.87         -46.35          75.04          64.28
    0.4334              -52.98          5.918           46.4          51.21         0.9066          8.663         -60.54          64.83         -46.42          75.02          64.26
    0.4562              -52.97          5.933          46.41          51.21         0.9071           8.66         -60.42          64.79         -46.49           75.0          64.23
    0.4791              -52.96           5.95          46.42          51.21         0.9076          8.656         -60.28          64.74         -46.57          74.97          64.21
    0.5019              -52.94          5.968          46.43          51.21         0.9082          8.652         -60.13          64.69         -46.65          74.94          64.18
    0.5247              -52.93          5.989          46.44          51.21         0.9089          8.647         -59.96          64.63         -46.75          74.91          64.15
    0.5475              -52.91          6.011          46.45          51.21         0.9097          8.642         -59.78          64.57         -46.86          74.87          64.11
    0.5703              -52.89          6.037          46.46          51.21         0.9105          8.636         -59.57           64.5         -46.98          74.83          64.07
    0.5931              -52.87          6.065          46.48          51.21         0.9114          8.629         -59.34          64.42         -47.11          74.79          64.03
    0.6159              -52.85          6.097          46.49          51.21         0.9125          8.622         -59.07          64.33         -47.26          74.74          63.97
    0.6387              -52.82          6.133          46.51          51.21         0.9137          8.613         -58.78          64.23         -47.43          74.68          63.92
    0.6616              -52.79          6.174          46.53          51.21          0.915          8.604         -58.44          64.11         -47.63          74.62          63.85
    0.6844              -52.75           6.22          46.56          51.21         0.9165          8.593         -58.06          63.98         -47.85          74.55          63.78
    0.7072              -52.71          6.274          46.58          51.21         0.9183           8.58         -57.62          63.84          -48.1          74.46          63.69
      0.73              -52.66          6.336          46.61          51.21         0.9203          8.566         -57.11          63.66          -48.4          74.37           63.6
    0.7528              -52.61          6.408          46.65          51.21         0.9227          8.549         -56.52          63.46         -48.74          74.26          63.48
    0.7756              -52.54          6.492          46.69          51.21         0.9255          8.529         -55.82          63.23         -49.14          74.13          63.35
    0.7984              -52.47          6.591          46.74          51.21         0.9287          8.506         -55.01          62.95         -49.61          73.97          63.19
    0.8212              -52.38          6.709           46.8          51.21         0.9326          8.478         -54.04          62.62         -50.16          73.79          63.01
    0.8441              -52.27           6.85          46.87          51.21         0.9373          8.445         -52.88          62.23         -50.83          73.57          62.78
    0.8669              -52.14           7.02          46.96          51.21         0.9429          8.405         -51.47          61.75         -51.64           73.3          62.51
    0.8897              -51.98          7.229          47.06           51.2         0.9498          8.357         -49.76          61.17         -52.63          72.98          62.18
    0.9125              -51.78          7.487          47.19           51.2         0.9582          8.296         -47.64          60.45         -53.85          72.58          61.77
    0.9353              -51.53          7.808          47.35           51.2         0.9688          8.221         -44.99          59.56         -55.38          72.08          61.26
    0.9581              -51.22          8.212          47.56           51.2         0.9821          8.127         -41.67          58.43         -57.29          71.45          60.62
    0.9809              -50.83          8.726          47.82           51.2         0.9991          8.006         -37.43          56.99         -59.73          70.65          59.81
     1.004              -50.33          9.384          48.15           51.2          1.021          7.853         -32.02          55.16         -62.85          69.62          58.77
     1.027              -49.68          10.23          48.57          51.19          1.049          7.655         -25.07           52.8         -66.86          68.31          57.43
     1.049              -48.85          11.31          49.11          51.19          1.084          7.403         -16.19          49.79         -71.97          66.63          55.72
     1.072              -47.81          12.66           49.8          51.18          1.129          7.085         -5.026          46.01          -78.4          64.52          53.57
     1.095              -46.55          14.32          50.63          51.17          1.183          6.699          8.577           41.4         -86.24          61.94          50.95
     1.118              -45.08          16.23          51.59          51.17          1.246           6.25          24.35          36.05         -95.33          58.96          47.92
     1.141              -43.49          18.31          52.63          51.16          1.315          5.765          41.42          30.27         -105.2          55.73          44.63
     1.163               -41.9          20.38          53.68          51.15          1.383           5.28          58.49          24.48         -115.0           52.5          41.35
     1.186              -40.43           22.3          54.64          51.14          1.446          4.832          74.26          19.13         -124.1          49.52          38.31
     1.209              -39.16          23.95          55.47          51.13            1.5          4.445          87.87          14.52         -131.9          46.95          35.69
     1.232              -38.12          25.31          56.15          51.13          1.545          4.128          99.03          10.74         -138.4          44.84          33.54
     1.255               -37.3          26.39           56.7          51.12          1.581          3.875          107.9           7.73         -143.5          43.16          31.84
     1.277              -36.65          27.23          57.12          51.12          1.608          3.678          114.9          5.375         -147.5          41.84           30.5
       1.3              -36.14          27.89          57.45          51.12           1.63          3.524          120.3          3.539         -150.6          40.82          29.46
     1.323              -35.75           28.4          57.71          51.11          1.647          3.404          124.5          2.105         -153.0          40.02          28.64
     1.346              -35.44          28.81          57.91          51.11           1.66          3.309          127.8         0.9763         -154.9          39.39           28.0
     1.369              -35.19          29.13          58.07          51.11          1.671          3.234          130.5        0.08064         -156.5          38.89          27.49
     1.392               -35.0          29.39           58.2          51.11          1.679          3.174          132.6        -0.6376         -157.7          38.49          27.08
     1.414              -34.84           29.6          58.31          51.11          1.686          3.125          134.3          -1.22         -158.7          38.16          26.75
     1.437              -34.71          29.77          58.39          51.11          1.692          3.085          135.7         -1.696         -159.5           37.9          26.48
      1.46               -34.6          29.91          58.47          51.11          1.697          3.052          136.9          -2.09         -160.2          37.68          26.26
